<?xml version="1.0" standalone="no"?>
<!DOCTYPE svg PUBLIC "-//W3C//DTD SVG 20010904//EN"
 "http://www.w3.org/TR/2001/REC-SVG-20010904/DTD/svg10.dtd">
<svg version="1.0" xmlns="http://www.w3.org/2000/svg"
 width="512.000000pt" height="512.000000pt" viewBox="0 0 512.000000 512.000000"
 preserveAspectRatio="xMidYMid meet">
<metadata>
Created by potrace 1.14, written by Peter Selinger 2001-2017
</metadata>
<g transform="translate(0.000000,512.000000) scale(0.100000,-0.100000)"
fill="#000000" stroke="none">
<path d="M681 4784 c-170 -45 -312 -193 -350 -364 -7 -28 -10 -220 -8 -502 2
-444 3 -457 23 -484 32 -44 68 -66 116 -71 58 -7 108 15 144 63 l29 37 5 451
c3 307 9 459 16 476 12 25 44 58 74 76 8 5 239 11 512 14 482 5 497 6 524 26
53 39 69 71 69 134 0 63 -16 95 -69 134 -27 21 -39 21 -529 23 -410 1 -512 -1
-556 -13z"/>
<path d="M3375 4786 c-114 -50 -126 -204 -21 -279 31 -22 34 -22 526 -27 349
-4 501 -8 515 -17 34 -19 65 -58 75 -93 5 -19 10 -222 10 -463 1 -475 -1 -463
66 -514 30 -22 47 -27 95 -28 62 0 94 16 133 69 20 27 21 40 23 484 2 273 -2
475 -8 502 -27 124 -119 250 -230 315 -105 62 -122 63 -664 64 -388 0 -496 -2
-520 -13z"/>
<path d="M415 2706 c-64 -28 -103 -102 -92 -173 7 -46 24 -71 69 -103 l41 -30
2133 3 2133 2 27 21 c50 37 68 71 71 129 1 48 -2 60 -31 98 -19 24 -46 47 -66
54 -54 18 -4243 17 -4285 -1z"/>
<path d="M426 1750 c-38 -12 -75 -47 -92 -88 -21 -48 -19 -903 2 -981 45 -169
181 -302 352 -346 47 -12 143 -15 554 -12 l496 2 39 31 c87 70 80 195 -15 259
l-36 24 -469 1 c-259 0 -482 3 -496 7 -39 9 -70 32 -96 71 l-24 35 -1 439 c0
278 -4 448 -11 465 -30 79 -117 118 -203 93z"/>
<path d="M4575 1746 c-37 -17 -70 -52 -84 -89 -7 -19 -11 -178 -11 -458 0
-478 0 -475 -66 -525 l-37 -29 -498 -5 c-483 -5 -498 -6 -525 -26 -49 -36 -68
-71 -71 -128 -2 -60 23 -107 74 -142 27 -18 54 -19 533 -21 l505 -1 73 24
c120 40 215 118 271 224 60 111 61 129 58 630 -2 452 -2 455 -24 486 -12 17
-34 39 -48 48 -36 23 -113 30 -150 12z"/>
</g>
</svg>
